<?xml version="1.0" encoding="utf-8"?>
<!-- Generator: Adobe Illustrator 22.0.1, SVG Export Plug-In . SVG Version: 6.00 Build 0)  -->
<svg version="1.1" id="Layer_1" xmlns="http://www.w3.org/2000/svg" xmlns:xlink="http://www.w3.org/1999/xlink" x="0px" y="0px"
	 viewBox="0 0 89.8 102.3" style="enable-background:new 0 0 89.8 102.3;" xml:space="preserve" fill="#30d6d6">
<g id="Layer_6">
	<g id="head">
		<path d="M85.6,45.3c1-24.8-15.2-44.7-40.8-44.7C19.3,0.6,3.1,20.5,4,45.3c0.4,19.1-0.9,38.3-3.8,57.2l22.2-16.7l22.4,16.8
			l22.4-16.8l22.2,16.7C86.5,83.6,85.2,64.4,85.6,45.3z M30.9,47.2c-4.1,0-6.4-4-5.3-8.4c0.9-3.7,4-6.3,7.1-6.3s5.5,2.6,5.5,6.3
			C38.3,43.1,35,47.2,30.9,47.2z M58.7,47.2c-4.1,0-7.3-4-7.3-8.4c0-3.7,2.5-6.3,5.5-6.3c3.1,0,6.2,2.6,7.1,6.3
			C65.1,43.1,62.8,47.2,58.7,47.2z"/>
	</g>
</g>
</svg>
