<svg xmlns="http://www.w3.org/2000/svg" viewBox="0 0 208.2 20.51"><defs><style>.cls-1{fill:#2f96ba;}</style></defs><title>title</title><g id="Layer_2" data-name="Layer 2"><g id="Layer_1-2" data-name="Layer 1"><path class="cls-1" d="M17.58,20.51H14.23V18l-2.51,2.51H2.93a2.83,2.83,0,0,1-2.05-.88A2.8,2.8,0,0,1,0,17.58V2.93A2.79,2.79,0,0,1,.88.88,2.79,2.79,0,0,1,2.93,0H17.58V2.93H3.35V17.58H14.23V11.72H8.79l2.93-2.93h5.86Z"/><path class="cls-1" d="M41.64,20.51H38.29V11.72H27.41v8.79H24.06V0h3.35V11.3l2.51-2.51h8.37V0h3.35Z"/><path class="cls-1" d="M66.54,17.58a2.94,2.94,0,0,1-2.93,2.93H51.89A2.94,2.94,0,0,1,49,17.58V2.93A2.82,2.82,0,0,1,49.82.86,2.82,2.82,0,0,1,51.89,0H63.61a2.82,2.82,0,0,1,2.07.86,2.82,2.82,0,0,1,.86,2.07Zm-3.35,0V2.93H52.31V17.58Z"/><path class="cls-1" d="M87.68,17.58a2.82,2.82,0,0,1-.86,2.07,2.86,2.86,0,0,1-2.07.86H73V17.58h11.3V11.72H76a2.82,2.82,0,0,1-2.07-.86A2.79,2.79,0,0,1,73,8.79V2.93A2.79,2.79,0,0,1,73.89.86,2.82,2.82,0,0,1,76,0H87.68V2.93H76.38V8.79h8.37a2.86,2.86,0,0,1,2.07.86,2.82,2.82,0,0,1,.86,2.07Z"/><path class="cls-1" d="M106.3,2.93h-6.07V20.51H96.88V2.93H90.81V0H106.3Z"/><path class="cls-1" d="M127.85,17.58a3,3,0,0,1-2.93,2.93H110.27V5.86l2.93-2.93h-2.93V0h14.65a2.79,2.79,0,0,1,2,.88,2.79,2.79,0,0,1,.88,2.05Zm-3.35,0V2.93H113.62V20.09l2.51-2.51Z"/><path class="cls-1" d="M153.17,20.51H148.9l-8.7-8.79h9.2V2.93H138.52V20.51h-3.35V5.82l2.93-2.89h-2.93V0h14.65a2.79,2.79,0,0,1,2.05.88,2.79,2.79,0,0,1,.88,2.05v8q0,3.34-2.93,3.35h-2.51v.46Z"/><path class="cls-1" d="M162.59,20.51h-3.35V0h3.35Z"/><path class="cls-1" d="M188.53,0l-7.82,20.51h-5.44L167.61,0h3.76l6.28,17.66h.84L184.77,0Z"/><path class="cls-1" d="M208.2,20.51H193.55V5.86l2.93-2.93h-2.93V0H208.2V2.93H196.9V11.3l2.51-2.51h8.79v2.93H196.9v5.86h11.3Z"/></g></g></svg>