<svg xmlns="http://www.w3.org/2000/svg" viewBox="0 0 89.23 135.63"><defs><style>.cls-1{fill:#ffffff;}</style></defs><title>ghost</title><g id="Layer_2" data-name="Layer 2"><g id="Layer_1-2" data-name="Layer 1"><path class="cls-1" d="M85.38,44.72C86.33,19.91,70.14,0,44.61,0S2.9,19.91,3.85,44.72A328.83,328.83,0,0,1,0,102L22.24,85.29l22.37,16.78L67,85.29,89.23,102A328.83,328.83,0,0,1,85.38,44.72Zm-54.65,1.9c-4.06,0-6.35-4-5.3-8.38.9-3.71,4-6.33,7.09-6.33s5.55,2.62,5.55,6.33C38.07,42.57,34.78,46.62,30.73,46.62Zm27.77,0c-4,0-7.34-4-7.34-8.38,0-3.71,2.48-6.33,5.55-6.33s6.19,2.62,7.09,6.33C64.85,42.57,62.55,46.62,58.5,46.62Z"/><polygon class="cls-1" points="78.81 109.98 66.99 101.11 55.16 109.98 66.99 118.85 78.81 109.98"/><polygon class="cls-1" points="56.44 126.76 51.36 122.95 44.61 117.89 32.79 126.76 44.61 135.63 56.44 126.76"/><polygon class="cls-1" points="10.41 109.98 22.24 118.85 30.64 112.55 34.07 109.98 22.24 101.11 10.41 109.98"/></g></g></svg>